<?xml version="1.0" encoding="UTF-8" standalone="no"?>
<!-- Created with Inkscape (http://www.inkscape.org/) -->

<svg
   xmlns:dc="http://purl.org/dc/elements/1.1/"
   xmlns:cc="http://creativecommons.org/ns#"
   xmlns:rdf="http://www.w3.org/1999/02/22-rdf-syntax-ns#"
   xmlns:svg="http://www.w3.org/2000/svg"
   xmlns="http://www.w3.org/2000/svg"
   xmlns:xlink="http://www.w3.org/1999/xlink"
   xmlns:sodipodi="http://sodipodi.sourceforge.net/DTD/sodipodi-0.dtd"
   xmlns:inkscape="http://www.inkscape.org/namespaces/inkscape"
   width="210mm"
   height="297mm"
   viewBox="0 0 210 297"
   version="1.1"
   id="svg8"
   inkscape:version="0.92.5 (2060ec1f9f, 2020-04-08)"
   sodipodi:docname="main_icon.svg"
   inkscape:export-filename="/home/technomag/QtProjects/MocGui/images/main_icon.png"
   inkscape:export-xdpi="12.212474"
   inkscape:export-ydpi="12.212474">
  <defs
     id="defs2">
    <linearGradient
       inkscape:collect="always"
       id="linearGradient821">
      <stop
         style="stop-color:#0175c1;stop-opacity:1"
         offset="0"
         id="stop817" />
      <stop
         style="stop-color:#008baa;stop-opacity:0"
         offset="1"
         id="stop819" />
    </linearGradient>
    <radialGradient
       inkscape:collect="always"
       xlink:href="#linearGradient821"
       id="radialGradient825"
       cx="99.407738"
       cy="143.1637"
       fx="99.407738"
       fy="143.1637"
       r="28.465557"
       gradientUnits="userSpaceOnUse"
       gradientTransform="matrix(2.4460017,0.02759358,-0.02335454,2.0702374,-140.40024,-155.96216)" />
  </defs>
  <sodipodi:namedview
     id="base"
     pagecolor="#ffffff"
     bordercolor="#666666"
     borderopacity="1.0"
     inkscape:pageopacity="0.0"
     inkscape:pageshadow="2"
     inkscape:zoom="4"
     inkscape:cx="466.94151"
     inkscape:cy="702.34293"
     inkscape:document-units="mm"
     inkscape:current-layer="layer2"
     showgrid="false"
     inkscape:window-width="1920"
     inkscape:window-height="983"
     inkscape:window-x="0"
     inkscape:window-y="33"
     inkscape:window-maximized="1" />
  <metadata
     id="metadata5">
    <rdf:RDF>
      <cc:Work
         rdf:about="">
        <dc:format>image/svg+xml</dc:format>
        <dc:type
           rdf:resource="http://purl.org/dc/dcmitype/StillImage" />
        <dc:title></dc:title>
      </cc:Work>
    </rdf:RDF>
  </metadata>
  <g
     inkscape:label="Layer 1"
     inkscape:groupmode="layer"
     id="layer1">
    <circle
       style="opacity:1;fill:url(#radialGradient825);fill-opacity:1;fill-rule:nonzero;stroke:none;stroke-width:0.23468542;stroke-linecap:round;stroke-linejoin:bevel;stroke-miterlimit:4;stroke-dasharray:none;stroke-dashoffset:0;stroke-opacity:1;paint-order:stroke fill markers"
       id="path815"
       cx="99.407738"
       cy="143.1637"
       r="28.348215" />
    <path
       sodipodi:type="star"
       style="opacity:1;fill:#ffffff;fill-opacity:1;fill-rule:nonzero;stroke:none;stroke-width:0.23468542;stroke-linecap:round;stroke-linejoin:bevel;stroke-miterlimit:4;stroke-dasharray:none;stroke-dashoffset:0;stroke-opacity:1;paint-order:stroke fill markers"
       id="path854"
       sodipodi:sides="3"
       sodipodi:cx="93.8116"
       sodipodi:cy="142.25095"
       sodipodi:r1="31.04471"
       sodipodi:r2="15.522355"
       sodipodi:arg1="0"
       sodipodi:arg2="1.0471976"
       inkscape:flatsided="true"
       inkscape:rounded="0"
       inkscape:randomized="0"
       d="m 124.85631,142.25095 -46.567065,26.8855 0,-53.77101 z"
       inkscape:transform-center-x="-4.3534899"
       transform="matrix(0.56093175,0,0,0.52283074,46.802356,68.946859)" />
  </g>
  <g
     inkscape:groupmode="layer"
     id="layer2"
     inkscape:label="Layer 2">
    <path
       style="fill:#a0ff3c;stroke:#81d916;stroke-width:0.12287603px;stroke-linecap:butt;stroke-linejoin:miter;stroke-opacity:1;fill-opacity:1"
       d="m 116.85079,123.92526 c -0.73505,-0.56257 -1.65715,-1.1314 -2.62245,-1.32586 -1.21896,-0.24555 -2.91563,-0.18959 -4.12279,0.38493 -1.04884,0.49916 -2.20805,1.45274 -2.6067,2.51728 -0.37307,0.99624 -0.36841,2.44113 0.11663,3.39099 0.61545,1.20527 1.74537,1.86739 3.07318,2.25761 1.64944,0.48476 3.62565,0.26585 5.25751,-0.27189 1.28133,-0.42223 2.18051,-1.25538 2.90298,-2.36453 0.47408,-0.72783 0.66807,-2.8997 0.67814,-3.72442 0.0285,-2.33333 -0.0793,-5.89562 -0.0793,-5.89562 l -0.0599,-8.50193 c 0,0 2.26065,1.00994 2.66028,1.5397 0.54049,0.7165 0.7402,1.10875 0.9708,1.78409 0.17617,0.51592 0.11347,1.88796 0.11347,1.88796 0,0 1.04302,-1.30222 1.2608,-2.07737 0.22084,-0.78603 0.29871,-1.68249 0,-2.44396 -0.35969,-0.91694 -1.32463,-1.48994 -2.10552,-2.11403 -1.01764,-0.8133 -2.45083,-1.07567 -3.31589,-2.0407 -0.35832,-0.39974 -0.6304,-1.46638 -0.6304,-1.46638 l -0.12608,-0.48879 0.12608,8.55386 0.12608,8.55386 c 0,0 0.0449,1.75353 0,2.68836 -0.0111,0.23017 -0.50432,0.48879 -0.50432,0.48879 0,0 -0.65008,-0.97793 -1.11265,-1.33195 z"
       id="path857"
       inkscape:connector-curvature="0"
       sodipodi:nodetypes="sssssssssccsscssssccccscs" />
  </g>
</svg>
